<svg width="185" height="23" viewBox="0 0 185 23" fill="none" xmlns="http://www.w3.org/2000/svg">
<path d="M14.6901 15.7C14.8901 15.18 15.1101 14.7 15.3501 14.26C15.5901 13.8 15.8601 13.37 16.1601 12.97H0.0800783V10.51H16.1601C15.8801 10.11 15.6201 9.69 15.3801 9.25C15.1401 8.79 14.9201 8.3 14.7201 7.78H17.0001C18.2401 9.24 19.6001 10.35 21.0801 11.11V12.4C19.6001 13.12 18.2401 14.22 17.0001 15.7H14.6901ZM39.2031 22C38.5195 22 38.1777 21.6338 38.1777 20.9014V2.09277C38.1777 1.36035 38.5195 0.994141 39.2031 0.994141H44.3154C48.8076 0.994141 51.8447 1.90234 53.4268 3.71875C55.0186 5.53516 55.8145 8.11816 55.8145 11.4678C55.8145 14.8174 55.0186 17.4102 53.4268 19.2461C51.8447 21.082 48.8076 22 44.3154 22H39.2031ZM42.4551 18.3672H44.0371C47.0645 18.3672 49.0225 17.8057 49.9111 16.6826C50.7998 15.5498 51.2441 13.8115 51.2441 11.4678C51.2441 9.12402 50.7998 7.39551 49.9111 6.28223C49.0225 5.15918 47.0645 4.59766 44.0371 4.59766H42.4551V18.3672ZM58.2461 17.8984C58.2461 15.9453 59.1787 14.5293 61.0439 13.6504C62.9092 12.7715 65.0381 12.3027 67.4307 12.2441V11.6582C67.4307 10.7598 67.2061 10.125 66.7568 9.75391C66.3076 9.38281 65.6826 9.19727 64.8818 9.19727C64.3154 9.19727 63.8125 9.28027 63.373 9.44629C62.9434 9.60254 62.5674 9.78809 62.2451 10.0029C61.9326 10.208 61.6494 10.418 61.3955 10.6328C60.9463 11.0234 60.5752 11.043 60.2822 10.6914L59.0664 9.19727C58.7637 8.82617 58.8369 8.44531 59.2861 8.05469C59.6279 7.75195 60.0234 7.48828 60.4727 7.26367C60.9316 7.03906 61.5371 6.8291 62.2891 6.63379C63.041 6.42871 64.0176 6.32617 65.2188 6.32617C67.25 6.32617 68.8076 6.79492 69.8916 7.73242C70.9854 8.66992 71.5322 10.0518 71.5322 11.8779V21.1211C71.5322 21.707 71.2393 22 70.6533 22H68.251C67.7236 22 67.46 21.707 67.46 21.1211V20.6816H67.4307C66.8545 21.2383 66.1611 21.6484 65.3506 21.9121C64.5498 22.166 63.8125 22.293 63.1387 22.293C61.5371 22.293 60.3213 21.9023 59.4912 21.1211C58.6611 20.3301 58.2461 19.2559 58.2461 17.8984ZM62.582 17.8105C62.582 18.1523 62.6504 18.4502 62.7871 18.7041C62.9238 18.9482 63.1387 19.1289 63.4316 19.2461C63.7246 19.3633 64.0518 19.4219 64.4131 19.4219C64.9111 19.4219 65.3945 19.3535 65.8633 19.2168C66.332 19.0801 66.8545 18.7578 67.4307 18.25V15.0713C65.79 15.2568 64.6914 15.4961 64.1348 15.7891C63.5781 16.082 63.1777 16.3848 62.9336 16.6973C62.6992 17.0098 62.582 17.3809 62.582 17.8105ZM75.2236 20.9746C74.7451 20.6328 74.6133 20.2666 74.8281 19.876L75.5752 18.5137C75.8389 18.0254 76.249 17.9668 76.8057 18.3379C77.3623 18.709 78.0166 18.9824 78.7686 19.1582C79.5303 19.334 80.2236 19.4219 80.8486 19.4219C81.2881 19.4219 81.6982 19.3779 82.0791 19.29C82.46 19.2021 82.7822 19.0312 83.0459 18.7773C83.3096 18.5234 83.4414 18.1523 83.4414 17.6641C83.4414 17.3711 83.3633 17.1221 83.207 16.917C83.0508 16.7119 82.8506 16.5557 82.6064 16.4482C82.3623 16.3408 82.1035 16.2529 81.8301 16.1846C81.4688 16.0967 80.9463 15.9502 80.2627 15.7451C79.5889 15.54 78.9395 15.3008 78.3145 15.0273C77.7969 14.8027 77.2891 14.4902 76.791 14.0898C76.3027 13.6797 75.9414 13.2256 75.707 12.7275C75.4824 12.2295 75.3701 11.6143 75.3701 10.8818C75.3701 9.89551 75.6533 9.03125 76.2197 8.28906C76.7959 7.54688 77.5381 7.03418 78.4463 6.75098C79.3545 6.46777 80.4873 6.32617 81.8447 6.32617C82.7627 6.32617 83.6562 6.45801 84.5254 6.72168C85.3945 6.98535 86.0146 7.23438 86.3857 7.46875C86.9717 7.83984 87.1182 8.23535 86.8252 8.65527L85.9316 9.95898C85.6582 10.3496 85.2188 10.3789 84.6133 10.0469C84.1543 9.79297 83.7002 9.58789 83.251 9.43164C82.8115 9.27539 82.3184 9.19727 81.7715 9.19727C81.4004 9.19727 81.0439 9.23633 80.7021 9.31445C80.3604 9.39258 80.0674 9.53906 79.8232 9.75391C79.5889 9.96875 79.4717 10.252 79.4717 10.6035C79.4717 10.9746 79.5791 11.2676 79.7939 11.4824C80.0186 11.6875 80.2725 11.8389 80.5557 11.9365C80.8486 12.0342 81.127 12.127 81.3906 12.2148C81.9375 12.3906 82.4893 12.5615 83.0459 12.7275C83.6025 12.8838 84.1689 13.0742 84.7451 13.2988C85.2432 13.4941 85.7266 13.7725 86.1953 14.1338C86.6641 14.4951 87.0059 14.9541 87.2207 15.5107C87.4355 16.0674 87.543 16.7021 87.543 17.415C87.543 18.3623 87.2598 19.2412 86.6934 20.0518C86.127 20.8623 85.3799 21.4385 84.4521 21.7803C83.5244 22.1221 82.4453 22.293 81.2148 22.293C79.8379 22.293 78.666 22.1953 77.6992 22C76.7324 21.8047 75.9072 21.4629 75.2236 20.9746ZM91.1465 22C90.5605 22 90.2676 21.707 90.2676 21.1211V1.25781C90.2676 0.671875 90.5605 0.378906 91.1465 0.378906H93.4902C94.0762 0.378906 94.3691 0.671875 94.3691 1.25781V7.17578C94.3691 7.56641 94.3496 7.95703 94.3105 8.34766H94.3984C94.8477 7.57617 95.4189 7.04883 96.1123 6.76562C96.8057 6.47266 97.6406 6.32617 98.6172 6.32617C100.141 6.32617 101.4 6.80469 102.396 7.76172C103.393 8.71875 103.891 10.4668 103.891 13.0059V21.1211C103.891 21.707 103.598 22 103.012 22H100.668C100.082 22 99.7891 21.707 99.7891 21.1211V14.0605C99.7891 11.9316 99.6426 10.5889 99.3496 10.0322C99.0566 9.47559 98.4268 9.19727 97.46 9.19727C96.4346 9.19727 95.6631 9.59766 95.1455 10.3984C94.6279 11.1895 94.3691 12.8398 94.3691 15.3496V21.1211C94.3691 21.707 94.0762 22 93.4902 22H91.1465ZM108.725 22C108.139 22 107.846 21.707 107.846 21.1211V1.25781C107.846 0.671875 108.139 0.378906 108.725 0.378906H111.068C111.654 0.378906 111.947 0.671875 111.947 1.25781V7.17578C111.947 7.56641 111.928 7.95703 111.889 8.34766H111.947C112.455 7.50781 113.021 6.96094 113.646 6.70703C114.271 6.45313 115.023 6.32617 115.902 6.32617C118.197 6.32617 119.809 7.12207 120.736 8.71387C121.674 10.2959 122.143 12.1611 122.143 14.3096C122.143 16.458 121.674 18.3281 120.736 19.9199C119.809 21.502 118.197 22.293 115.902 22.293C115.023 22.293 114.271 22.166 113.646 21.9121C113.021 21.6582 112.455 21.1113 111.947 20.2715H111.889L111.83 21.1211C111.791 21.707 111.527 22 111.039 22H108.725ZM111.947 14.9688C111.947 16.2871 112.206 17.3613 112.724 18.1914C113.251 19.0117 113.881 19.4219 114.613 19.4219C115.932 19.4219 116.791 18.9629 117.191 18.0449C117.602 17.1172 117.807 15.8721 117.807 14.3096C117.807 12.7471 117.602 11.5068 117.191 10.5889C116.791 9.66113 115.932 9.19727 114.613 9.19727C113.881 9.19727 113.251 9.6123 112.724 10.4424C112.206 11.2627 111.947 12.332 111.947 13.6504V14.9688ZM124.486 14.3096C124.486 11.8193 125.126 9.86621 126.405 8.4502C127.694 7.03418 129.608 6.32617 132.147 6.32617C134.687 6.32617 136.596 7.03418 137.875 8.4502C139.164 9.86621 139.809 11.8193 139.809 14.3096C139.809 16.7998 139.164 18.7529 137.875 20.1689C136.596 21.585 134.687 22.293 132.147 22.293C129.608 22.293 127.694 21.585 126.405 20.1689C125.126 18.7529 124.486 16.7998 124.486 14.3096ZM128.822 14.3096C128.822 16.165 129.105 17.4834 129.672 18.2646C130.248 19.0361 131.073 19.4219 132.147 19.4219C133.222 19.4219 134.042 19.0361 134.608 18.2646C135.185 17.4834 135.473 16.165 135.473 14.3096C135.473 12.4541 135.185 11.1406 134.608 10.3691C134.042 9.58789 133.222 9.19727 132.147 9.19727C131.073 9.19727 130.248 9.58789 129.672 10.3691C129.105 11.1406 128.822 12.4541 128.822 14.3096ZM142.152 17.8984C142.152 15.9453 143.085 14.5293 144.95 13.6504C146.815 12.7715 148.944 12.3027 151.337 12.2441V11.6582C151.337 10.7598 151.112 10.125 150.663 9.75391C150.214 9.38281 149.589 9.19727 148.788 9.19727C148.222 9.19727 147.719 9.28027 147.279 9.44629C146.85 9.60254 146.474 9.78809 146.151 10.0029C145.839 10.208 145.556 10.418 145.302 10.6328C144.853 11.0234 144.481 11.043 144.188 10.6914L142.973 9.19727C142.67 8.82617 142.743 8.44531 143.192 8.05469C143.534 7.75195 143.93 7.48828 144.379 7.26367C144.838 7.03906 145.443 6.8291 146.195 6.63379C146.947 6.42871 147.924 6.32617 149.125 6.32617C151.156 6.32617 152.714 6.79492 153.798 7.73242C154.892 8.66992 155.438 10.0518 155.438 11.8779V21.1211C155.438 21.707 155.146 22 154.56 22H152.157C151.63 22 151.366 21.707 151.366 21.1211V20.6816H151.337C150.761 21.2383 150.067 21.6484 149.257 21.9121C148.456 22.166 147.719 22.293 147.045 22.293C145.443 22.293 144.228 21.9023 143.397 21.1211C142.567 20.3301 142.152 19.2559 142.152 17.8984ZM146.488 17.8105C146.488 18.1523 146.557 18.4502 146.693 18.7041C146.83 18.9482 147.045 19.1289 147.338 19.2461C147.631 19.3633 147.958 19.4219 148.319 19.4219C148.817 19.4219 149.301 19.3535 149.77 19.2168C150.238 19.0801 150.761 18.7578 151.337 18.25V15.0713C149.696 15.2568 148.598 15.4961 148.041 15.7891C147.484 16.082 147.084 16.3848 146.84 16.6973C146.605 17.0098 146.488 17.3809 146.488 17.8105ZM160.316 22C159.73 22 159.438 21.707 159.438 21.1211V7.49805C159.438 6.91211 159.73 6.61914 160.316 6.61914H162.631C163.217 6.61914 163.51 6.91211 163.51 7.49805V8.69922H163.568C163.822 8.07422 164.247 7.52246 164.843 7.04395C165.438 6.56543 166.142 6.32617 166.952 6.32617C167.509 6.32617 167.968 6.39453 168.329 6.53125C168.671 6.6582 168.803 6.89258 168.725 7.23438L168.314 8.97754C168.227 9.36816 167.963 9.48535 167.523 9.3291C167.27 9.24121 167.025 9.19727 166.791 9.19727C165.854 9.19727 165.077 9.75879 164.462 10.8818C163.847 12.0049 163.539 13.6406 163.539 15.7891V21.1211C163.539 21.707 163.246 22 162.66 22H160.316ZM170.131 14.3096C170.131 12.1611 170.595 10.2959 171.522 8.71387C172.46 7.12207 174.076 6.32617 176.371 6.32617C177.25 6.32617 178.002 6.45313 178.627 6.70703C179.252 6.96094 179.818 7.50781 180.326 8.34766H180.385C180.346 7.95703 180.326 7.56641 180.326 7.17578V1.25781C180.326 0.671875 180.619 0.378906 181.205 0.378906H183.549C184.135 0.378906 184.428 0.671875 184.428 1.25781V21.1211C184.428 21.707 184.135 22 183.549 22H181.234C180.746 22 180.482 21.707 180.443 21.1211L180.385 20.2715H180.326C179.818 21.1113 179.252 21.6582 178.627 21.9121C178.002 22.166 177.25 22.293 176.371 22.293C174.076 22.293 172.46 21.502 171.522 19.9199C170.595 18.3281 170.131 16.458 170.131 14.3096ZM174.467 14.3096C174.467 15.8721 174.667 17.1172 175.067 18.0449C175.478 18.9629 176.342 19.4219 177.66 19.4219C178.393 19.4219 179.018 19.0117 179.535 18.1914C180.062 17.3613 180.326 16.2871 180.326 14.9688V13.6504C180.326 12.332 180.062 11.2627 179.535 10.4424C179.018 9.6123 178.393 9.19727 177.66 9.19727C176.342 9.19727 175.478 9.66113 175.067 10.5889C174.667 11.5068 174.467 12.7471 174.467 14.3096Z" fill="black"/>
</svg>
