<svg width="398" height="93" viewBox="0 0 398 93" fill="none" xmlns="http://www.w3.org/2000/svg">
<path d="M0.249023 46.2378C0.249023 32.1997 3.91113 21.0506 11.2354 12.7905C18.5596 4.53044 28.9355 0.400391 42.3633 0.400391C50.4606 0.400391 56.8083 1.43799 61.4062 3.51318C66.0449 5.58838 70.1139 8.8029 73.6133 13.1567C75.7292 15.8016 75.6681 17.8564 73.4302 19.3213L66.4722 23.8379C64.4377 25.1807 62.2607 24.5907 59.9414 22.0679C58.029 19.9927 55.6079 18.2633 52.6782 16.8799C49.7485 15.4964 46.5137 14.8047 42.9736 14.8047C34.4287 14.8047 28.3455 17.5106 24.7241 22.9224C21.1027 28.2935 19.292 36.0653 19.292 46.2378C19.292 56.4103 21.1027 64.2025 24.7241 69.6143C28.3455 74.9854 34.4287 77.6709 42.9736 77.6709C47.124 77.6709 50.7048 77.264 53.7158 76.4502C56.7269 75.5957 59.5752 74.0698 62.2607 71.8726V60.9473H49.0161C45.9644 60.9473 44.4385 59.6248 44.4385 56.98V49.7778C44.4385 47.133 45.9644 45.8105 49.0161 45.8105H75.5054C78.5571 45.8105 80.083 47.133 80.083 49.7778V80.7837C74.3864 84.9748 68.6287 87.9045 62.8101 89.5728C57.0321 91.241 50.2165 92.0752 42.3633 92.0752C29.139 92.0752 18.8037 87.9451 11.3574 79.6851C3.95182 71.425 0.249023 60.2759 0.249023 46.2378ZM100.957 90C98.1087 90 96.6846 88.4741 96.6846 85.4224V7.05322C96.6846 4.00146 98.1087 2.47559 100.957 2.47559H110.234C113.083 2.47559 114.507 4.00146 114.507 7.05322V85.4224C114.507 88.4741 113.083 90 110.234 90H100.957ZM130.925 18.1006C127.874 18.1006 126.348 16.7782 126.348 14.1333V6.44287C126.348 3.79801 127.874 2.47559 130.925 2.47559H193.669C196.721 2.47559 198.247 3.79801 198.247 6.44287V14.1333C198.247 16.7782 196.721 18.1006 193.669 18.1006H171.208V86.6431C171.208 88.881 170.191 90 168.157 90H156.438C154.403 90 153.386 88.881 153.386 86.6431V18.1006H130.925ZM214.36 90C211.512 90 210.088 88.4741 210.088 85.4224V7.05322C210.088 4.00146 211.512 2.47559 214.36 2.47559H224.248C226.689 2.47559 227.91 4.00146 227.91 7.05322V74.8633H263.494C266.545 74.8633 268.071 76.1857 268.071 78.8306V86.0327C268.071 88.6776 266.545 90 263.494 90H214.36ZM285.283 90C282.435 90 281.011 88.4741 281.011 85.4224V7.05322C281.011 4.00146 282.435 2.47559 285.283 2.47559H294.561C297.409 2.47559 298.833 4.00146 298.833 7.05322V85.4224C298.833 88.4741 297.409 90 294.561 90H285.283ZM313.848 46.2378C313.848 32.1997 317.469 21.0506 324.712 12.7905C331.955 4.53044 342.29 0.400391 355.718 0.400391C369.146 0.400391 379.481 4.53044 386.724 12.7905C393.966 21.0506 397.588 32.1997 397.588 46.2378C397.588 60.2759 393.966 71.425 386.724 79.6851C379.481 87.9451 369.146 92.0752 355.718 92.0752C342.29 92.0752 331.955 87.9451 324.712 79.6851C317.469 71.425 313.848 60.2759 313.848 46.2378ZM332.891 46.2378C332.891 56.4103 334.701 64.2025 338.323 69.6143C341.985 74.9854 347.783 77.6709 355.718 77.6709C363.652 77.6709 369.43 74.9854 373.052 69.6143C376.714 64.2025 378.545 56.4103 378.545 46.2378C378.545 36.0653 376.714 28.2935 373.052 22.9224C369.43 17.5106 363.652 14.8047 355.718 14.8047C347.783 14.8047 341.985 17.5106 338.323 22.9224C334.701 28.2935 332.891 36.0653 332.891 46.2378Z" fill="black"/>
</svg>
